<svg xmlns="http://www.w3.org/2000/svg" version="1.1" xmlns:xlink="http://www.w3.org/1999/xlink" xmlns:svgjs="http://svgjs.dev/svgjs" width="1000" height="1000" viewBox="0 0 1000 1000"><rect width="1000" height="1000" fill="#ffffff"></rect><g transform="matrix(0.7,0,0,0.7,149.57575757575756,282.1265587044535)"><svg viewBox="0 0 396 247" data-background-color="#ffffff" preserveAspectRatio="xMidYMid meet" height="623" width="1000" xmlns="http://www.w3.org/2000/svg" xmlns:xlink="http://www.w3.org/1999/xlink"><g id="tight-bounds" transform="matrix(1,0,0,1,0.2400000000000091,-0.09999999999999432)"><svg viewBox="0 0 395.52 247.2" height="247.2" width="395.52"><g><svg></svg></g><g><svg viewBox="0 0 395.52 247.2" height="247.2" width="395.52"><g transform="matrix(1,0,0,1,123.80562545454545,47.215199999999996)"><svg viewBox="0 0 147.90874909090908 152.7696" height="152.7696" width="147.90874909090908"><g><svg viewBox="0 0 147.90874909090908 152.7696" height="152.7696" width="147.90874909090908"><g><svg viewBox="0 0 147.90874909090908 152.7696" height="152.7696" width="147.90874909090908"><g><svg viewBox="0 0 147.90874909090908 152.7696" height="152.7696" width="147.90874909090908"><g id="textblocktransform"><svg viewBox="0 0 147.90874909090908 152.7696" height="152.7696" width="147.90874909090908" id="textblock"><g><svg viewBox="0 0 147.90874909090908 152.7696" height="152.7696" width="147.90874909090908"><g transform="matrix(1,0,0,1,0,0)"><svg width="147.90874909090908" viewBox="3.25 -33 31.950000762939453 33" height="152.7696" data-palette-color="#000000"><path d="M15.75 0L3.25 0 3.25-0.8 7.25-2.8 7.25-30.2 3.25-32.2 3.25-33 15.75-33 15.75-32.2 11.75-30.2 11.75-2.8 15.75-0.8 15.75 0ZM28 0L11.8-16.9 25.65-30.5 22.1-32.2 22.1-33 32.6-33 32.6-32.2 29.5-31 16.35-18.1 32.15-2.1 35.2-0.8 35.2 0 28 0Z" opacity="1" transform="matrix(1,0,0,1,0,0)" fill="#000000" class="wordmark-text-0" data-fill-palette-color="primary" id="text-0"></path></svg></g></svg></g></svg></g></svg></g></svg></g></svg></g></svg></g><path d="M89.413 41.215L89.413 0 336.613 0 336.613 247.2 89.413 247.2 89.413 205.985 103.19 205.985 103.19 233.423 322.836 233.423 322.836 13.777 103.19 13.777 103.19 41.215Z" fill="#000000" stroke="transparent" data-fill-palette-color="primary"></path></svg></g><defs></defs></svg><rect width="395.52" height="247.2" fill="none" stroke="none" visibility="hidden"></rect></g></svg></g></svg>