{
  "accessors": [
    {
      "bufferView": 2,
      "componentType": 5126,
      "count": 17527,
      "max": [
        0.35279902815818787,
        0.9213150143623352,
        0.40037301182746887
      ],
      "min": [
        -0.22391299903392792,
        -0.7367640733718872,
        -0.7533621788024902
      ],
      "type": "VEC3"
    },
    {
      "bufferView": 2,
      "byteOffset": 210324,
      "componentType": 5126,
      "count": 17527,
      "max": [
        0.9999899864196777,
        0.9999996423721313,
        0.9999709725379944
      ],
      "min": [
        -0.9999579191207886,
        -0.9999960064888,
        -0.9998570680618286
      ],
      "type": "VEC3"
    },
    {
      "bufferView": 1,
      "componentType": 5126,
      "count": 17527,
      "max": [
        0.9972630143165588,
        0.9999979734420776
      ],
      "min": [
        1.1851399904116988e-05,
        3.5630800994113088e-06
      ],
      "type": "VEC2"
    },
    {
      "bufferView": 0,
      "componentType": 5125,
      "count": 87456,
      "type": "SCALAR"
    }
  ],
  "asset": {
    "extras": {
      "author": "alban (https://sketchfab.com/alban)",
      "license": "CC-BY-4.0 (http://creativecommons.org/licenses/by/4.0/)",
      "source": "https://sketchfab.com/3d-models/vespa-px125-d8d0022e70d048b4a87f7248655f73bf",
      "title": "Vespa px125"
    },
    "generator": "Sketchfab-12.64.0",
    "version": "2.0"
  },
  "bufferViews": [
    {
      "buffer": 0,
      "byteLength": 349824,
      "name": "floatBufferViews",
      "target": 34963
    },
    {
      "buffer": 0,
      "byteLength": 140216,
      "byteOffset": 349824,
      "byteStride": 8,
      "name": "floatBufferViews",
      "target": 34962
    },
    {
      "buffer": 0,
      "byteLength": 420648,
      "byteOffset": 490040,
      "byteStride": 12,
      "name": "floatBufferViews",
      "target": 34962
    }
  ],
  "buffers": [
    {
      "byteLength": 910688,
      "uri": "scene.bin"
    }
  ],
  "extensionsUsed": [
    "KHR_materials_unlit"
  ],
  "images": [
    {
      "uri": "textures/textured_0_baseColor.jpeg"
    }
  ],
  "materials": [
    {
      "doubleSided": true,
      "extensions": {
        "KHR_materials_unlit": {}
      },
      "name": "textured_0",
      "pbrMetallicRoughness": {
        "baseColorTexture": {
          "index": 0
        },
        "metallicFactor": 0.0
      }
    }
  ],
  "meshes": [
    {
      "name": "Object_0",
      "primitives": [
        {
          "attributes": {
            "NORMAL": 1,
            "POSITION": 0,
            "TEXCOORD_0": 2
          },
          "indices": 3,
          "material": 0,
          "mode": 4
        }
      ]
    }
  ],
  "nodes": [
    {
      "children": [
        1
      ],
      "matrix": [
        0.9996129870414734,
        -0.027818311005830765,
        -6.1769058769713425e-18,
        0.0,
        0.0,
        2.220446049250313e-16,
        -1.0,
        0.0,
        0.027818311005830765,
        0.9996129870414734,
        2.219586707855544e-16,
        0.0,
        0.004934706259518862,
        0.0017243956681340933,
        3.8289275486527014e-19,
        1.0
      ],
      "name": "Sketchfab_model"
    },
    {
      "children": [
        2
      ],
      "name": "vespacut.obj.cleaner.materialmerger.gles"
    },
    {
      "mesh": 0,
      "name": "Object_2"
    }
  ],
  "samplers": [
    {
      "magFilter": 9729,
      "minFilter": 9987,
      "wrapS": 10497,
      "wrapT": 10497
    }
  ],
  "scene": 0,
  "scenes": [
    {
      "name": "Sketchfab_Scene",
      "nodes": [
        0
      ]
    }
  ],
  "textures": [
    {
      "sampler": 0,
      "source": 0
    }
  ]
}
