<svg xmlns="http://www.w3.org/2000/svg" version="1.1" xmlns:xlink="http://www.w3.org/1999/xlink" xmlns:svgjs="http://svgjs.dev/svgjs" width="1000" height="1000" viewBox="0 0 1000 1000"><rect width="1000" height="1000" fill="#ffffff"></rect><g transform="matrix(0.7,0,0,0.7,150.0000000000001,106.25)"><svg viewBox="0 0 320 360" data-background-color="#50a060" preserveAspectRatio="xMidYMid meet" height="1125" width="1000" xmlns="http://www.w3.org/2000/svg" xmlns:xlink="http://www.w3.org/1999/xlink"><g id="tight-bounds" transform="matrix(1,0,0,1,0,0)"><svg viewBox="0 0 320 360" height="360" width="320"><g><svg></svg></g><g><svg viewBox="0 0 320 360" height="360" width="320"><g><path d="M20.961 227.22l3.726 4.658-1.863-6.056c-0.466-2.795-3.726 0.466-1.863 1.398M25.153 224.425c1.397 2.329 2.795 4.658 2.795 6.987 0 3.261 2.795 4.658 5.123 5.589-3.261-3.726-5.124-13.974-7.918-12.576M204.017 26.929c7.918 0 15.371-0.932 23.756 0.931 20.495 5.124 37.729 15.371 49.374 29.811l32.606 52.169c1.397 13.042 4.192 27.482 3.726 43.319 3.261 0 2.795-4.658 6.521-5.59-3.726 9.316-5.59 20.961-6.521 34.469-2.329-7.453 0-18.632 0.466-24.687-3.261 5.124-5.124 1.397-5.124-0.932 0.466-3.726-1.397-3.261-2.795-4.658-5.124-4.658-8.384-9.782-12.11-17.7 2.329-6.055 2.795-14.905-4.658-19.563-2.329-1.397-5.124-3.726-6.521-7.453-1.863-5.124-5.124-11.179-4.193-19.097 0.466-2.329-6.987 5.124-11.179 1.863-18.166-12.576-36.332-27.016-58.224-39.127-11.645 0-20.029-4.192-24.221-9.316-3.726-4.658-0.932-10.713 4.658-11.179 3.261 0 6.987-0.932 9.782 0.932 0.466-1.863 2.329-4.192 4.657-4.192M157.904 16.215l0.932 0.466c4.658 0.932 6.987 7.453 12.11 5.124 0 3.261 0.466 6.521-0.466 8.85-1.397 3.726-5.59 3.726-8.85 3.726-31.208-1.863-49.374 11.179-68.471 22.358-5.124 3.261-10.713 5.59-14.906 9.782-20.029 18.632-41.921 35.866-47.045 70.335l-4.192 38.195c-0.466 4.192-5.124 8.384-4.192 13.508l3.26 22.824c-3.261-3.261-5.124 0.932-4.192 2.795 0.466 1.397 2.329 6.055 5.124 1.863 3.726 6.987 7.453 20.495 12.576 26.55 15.837 18.632 36.332 35.4 53.101 52.169 4.192-0.932 7.453-0.932 8.384-3.727 1.397 2.795-1.397 5.59-3.726 6.056 7.453 4.658 15.837 8.85 27.016 9.781 14.44 0.932 27.948 3.261 40.524 6.522 6.521-1.863 13.042-2.795 20.029-3.261 2.329 0 3.726-3.726 6.521-4.658l0.466-4.658c2.795 4.192 2.329-1.397 0.466-4.192 3.261 2.795 4.192 5.124 5.589 6.987 0-1.397 3.726-6.521 3.727-0.466l0.931-6.055c1.397-0.932 1.863 5.124 3.261 0.931 1.397-4.192 4.192-0.932 6.987-2.329-0.932 1.863-0.466 5.59 2.794 3.261l3.727-3.261c2.329 5.59 6.055 3.261 7.918 2.329 20.495-13.042 40.99-28.413 60.553-43.784l-0.466 6.055 2.329-7.453c2.329 2.329 4.192 0.466 5.124-0.931 2.795-4.658 6.521-9.316 12.577-13.508-7.453 20.029-16.303 35.866-27.482 48.908l-4.658 5.59c0 3.261-0.932 7.453-4.658 7.918-1.863 0.466-5.59-0.932-8.384 1.863-1.397 1.863 3.261 5.59-0.466 2.795-3.261-2.329-6.521 0-10.248 0.932-2.795 0.932 1.863 3.726 2.795 5.589 0.932 1.863 1.863 3.726 1.398 6.056l-5.124-5.59c-6.055 3.261-9.782 9.316-14.906 13.974-2.329 1.863-1.397 5.124-1.397 7.918-3.261 0-6.987-0.932-8.85 0.932-1.397 1.863-0.932 4.658-0.932 7.453-4.658-0.466-5.124-7.453-9.315-6.056-4.192 0.932-8.85 1.397-12.577 3.727 2.795 5.59-4.658 2.329-3.726 3.26-6.987-4.192-13.042-7.453-20.495-4.658-15.837-5.124-35.4-2.795-49.84-0.931 0-2.329 0.466-4.658-0.466-5.124-0.932 2.329-3.726 1.397-3.26 1.397-8.85-6.055-17.7-9.782-27.016-14.905-8.384 0.932-16.303-3.261-18.632-5.59-6.521-6.055-13.974-2.795-20.029-4.192-13.042-3.261-17.7-16.769-19.098-26.084-0.932-4.658-4.658-6.521-6.055-6.056-6.055-19.563-15.371-37.263-22.824-55.429-1.863-4.658-1.397-9.316-1.397-14.44 2.329 0.932 4.658 0.466 4.192-2.794-2.329-15.371-7.918-27.016-13.974-38.195 3.261-15.837 3.726-34.469 11.179-48.443 6.521-12.576 18.632-19.098 27.016-29.811 2.795-3.726 2.795-8.85 5.59-12.11 9.316-9.316 18.632-19.098 28.879-27.482 4.658-3.726 10.247 0 17.234-1.397 2.329-8.384 11.645-15.837 20.495-13.508 3.726 0.932 11.179-8.85 13.508-9.782 3.726-1.397 1.863 3.726 1.863 6.987 8.85-6.987 20.961-10.713 32.14-14.906" fill="#000000" fill-rule="nonzero" stroke="none" stroke-width="1" stroke-linecap="butt" stroke-linejoin="miter" stroke-miterlimit="10" stroke-dasharray="" stroke-dashoffset="0" font-family="none" font-weight="none" font-size="none" text-anchor="none" style="mix-blend-mode: normal" data-fill-palette-color="tertiary"></path></g><g transform="matrix(1,0,0,1,64,149.11765157919004)"><svg viewBox="0 0 192 61.76469684161991" height="61.76469684161991" width="192"><g><svg viewBox="0 0 192 61.76469684161991" height="61.76469684161991" width="192"><g><svg viewBox="0 0 192 61.76469684161991" height="61.76469684161991" width="192"><g><svg viewBox="0 0 192 61.76469684161991" height="61.76469684161991" width="192"><g id="textblocktransform"><svg viewBox="0 0 192 61.76469684161991" height="61.76469684161991" width="192" id="textblock"><g><svg viewBox="0 0 192 61.76469684161991" height="61.76469684161991" width="192"><g transform="matrix(1,0,0,1,0,0)"><svg width="192" viewBox="0.45 -37.25 118.28999999999999 38.05" height="61.76469684161991" data-palette-color="#454545"><path d="M28.85-3.75L29.3-1.05 21.2 0.45Q20-0.15 18.35-2.65L18.35-2.65 14-9.7 11.8-9.55 11.8-3.7Q13.5-3.1 14.55-2.45L14.55-2.45 14.35 0 1 0 0.85-1.7Q2.25-2.5 4.55-3.3L4.55-3.3 4.55-32.25 0.8-32.65 0.45-35.05Q4.75-36.7 9.35-36.8L9.35-36.8 11.8-34.6 11.8-12.15 13.65-13.35 19.25-20.35 15.75-20.55 15.4-22.95Q19.75-24.45 25.25-24.7L25.25-24.7 27.25-21.6 19.75-12.55 24.65-5.4Q25.95-3.7 27.95-3.7L27.95-3.7 28.85-3.75ZM52.5-14.8L49.6-11.9 36.85-12.05Q37.05-8.35 39.15-6.3 41.25-4.25 44.5-4.25L44.5-4.25Q47.2-4.25 50.9-6.05L50.9-6.05 51.95-3.4 44.1 0.65 42.5 0.75Q37 0.75 33.45-2.73 29.9-6.2 29.9-11.55L29.9-11.55Q29.9-17.15 33.5-20.98 37.1-24.8 42.25-24.8L42.25-24.8Q46.75-24.8 49.62-22.03 52.5-19.25 52.5-14.8L52.5-14.8ZM40.5-21L40.5-21Q37.9-19.5 37.15-15.5L37.15-15.5 45.8-15.95Q45.45-18.1 43.97-19.55 42.5-21 40.5-21ZM61.45-27.9L61.45-27.9Q58.3-29.3 56.2-31.95L56.2-31.95Q57.85-35.25 60.5-37.25L60.5-37.25Q63.5-35.65 65.55-32.85L65.55-32.85Q64.15-29.85 61.45-27.9ZM64.7-22.5L64.7-3.95Q67.05-3.2 68.34-2.45L68.34-2.45 68.15 0 53.8 0 53.65-1.7Q55.15-2.55 57.45-3.35L57.45-3.35 57.45-20.1 53.7-20.55 53.35-22.95Q57.65-24.6 62.25-24.7L62.25-24.7 64.7-22.5ZM82.29-4.85L82.29-4.85Q83.69-4.85 86.49-5.5L86.49-5.5 87.04-3.05 79.34 0.8Q77.19 0.9 75.24-0.65 73.29-2.2 73.24-4.15L73.24-4.15 73.24-18.6 69.74-18.55 69.54-21.15Q71.44-22.5 73.59-23.55L73.59-23.55 76.09-30.05 79.49-30.05 80.34-23.55 87.19-23.55 87.29-21.4 84.84-18.5 80.49-18.5 80.49-7.15Q80.49-5.85 80.89-5.35 81.29-4.85 82.29-4.85ZM115.14-16.55L115.14-3.9Q117.14-3.35 118.74-2.45L118.74-2.45 118.54 0 105.29 0 105.14-1.7 107.89-2.95 107.89-14.45Q107.89-19.35 104.64-19.35L104.64-19.35Q102.99-19.35 100.04-17.65L100.04-17.65 100.04-3.8Q101.79-3.25 103.09-2.45L103.09-2.45 102.89 0 89.24 0 89.09-1.7Q90.49-2.5 92.79-3.3L92.79-3.3 92.79-32.25 89.04-32.65 88.69-35.05Q92.99-36.7 97.59-36.8L97.59-36.8 100.04-34.6 100.04-20.05Q104.99-23.7 108.39-24.55L108.39-24.55Q110.69-24.4 112.69-23 114.69-21.6 114.99-19.4L114.99-19.4 115.14-16.55Z" opacity="1" transform="matrix(1,0,0,1,0,0)" fill="#000000" class="wordmark-text-0" data-fill-palette-color="primary" id="text-0"></path></svg></g></svg></g></svg></g></svg></g><g></g></svg></g></svg></g></svg></g></svg></g><defs></defs></svg><rect width="320" height="360" fill="none" stroke="none" visibility="hidden"></rect></g></svg></g></svg>